<mxfile host="app.diagrams.net" agent="Mozilla/5.0 (Windows NT 10.0; Win64; x64) AppleWebKit/537.36 (KHTML, like Gecko) Chrome/135.0.0.0 Safari/537.36" version="26.2.10">
  <diagram id="C5RBs43oDa-KdzZeNtuy" name="Page-1">
    <mxGraphModel dx="2410" dy="817" grid="1" gridSize="10" guides="1" tooltips="1" connect="1" arrows="1" fold="1" page="1" pageScale="1" pageWidth="827" pageHeight="1169" math="0" shadow="0">
      <root>
        <mxCell id="WIyWlLk6GJQsqaUBKTNV-0" />
        <mxCell id="WIyWlLk6GJQsqaUBKTNV-1" parent="WIyWlLk6GJQsqaUBKTNV-0" />
        <mxCell id="RCsGizd7HEm1mJrGQxPO-71" value="" style="rounded=0;whiteSpace=wrap;html=1;fillColor=none;strokeWidth=2;strokeColor=light-dark(#000000,#3516FF);" vertex="1" parent="WIyWlLk6GJQsqaUBKTNV-1">
          <mxGeometry x="-1260" y="304.25" width="280" height="365.5" as="geometry" />
        </mxCell>
        <mxCell id="RCsGizd7HEm1mJrGQxPO-34" value="" style="rounded=0;whiteSpace=wrap;html=1;fillColor=none;strokeWidth=2;fontColor=light-dark(#000000,#FFFF00);strokeColor=light-dark(#000000,#FFFF00);" vertex="1" parent="WIyWlLk6GJQsqaUBKTNV-1">
          <mxGeometry x="-1374" y="84" width="101" height="17" as="geometry" />
        </mxCell>
        <mxCell id="RCsGizd7HEm1mJrGQxPO-35" value="Interface adapters" style="text;html=1;align=center;verticalAlign=middle;whiteSpace=wrap;rounded=0;" vertex="1" parent="WIyWlLk6GJQsqaUBKTNV-1">
          <mxGeometry x="-1376" y="80" width="103" height="25" as="geometry" />
        </mxCell>
        <mxCell id="RCsGizd7HEm1mJrGQxPO-36" value="" style="rounded=0;whiteSpace=wrap;html=1;fillColor=none;strokeWidth=2;strokeColor=light-dark(#000000,#FFFF00);" vertex="1" parent="WIyWlLk6GJQsqaUBKTNV-1">
          <mxGeometry x="-1487" y="101" width="347" height="60" as="geometry" />
        </mxCell>
        <mxCell id="RCsGizd7HEm1mJrGQxPO-37" value="Frameworks" style="text;html=1;align=center;verticalAlign=middle;whiteSpace=wrap;rounded=0;" vertex="1" parent="WIyWlLk6GJQsqaUBKTNV-1">
          <mxGeometry x="-1157" y="172.5" width="60" height="30" as="geometry" />
        </mxCell>
        <mxCell id="RCsGizd7HEm1mJrGQxPO-38" value="" style="rounded=0;whiteSpace=wrap;html=1;fillColor=none;strokeWidth=2;fontColor=light-dark(#000000,#FFFF00);strokeColor=light-dark(#000000,#00FF00);" vertex="1" parent="WIyWlLk6GJQsqaUBKTNV-1">
          <mxGeometry x="-1167" y="179" width="80" height="17" as="geometry" />
        </mxCell>
        <mxCell id="RCsGizd7HEm1mJrGQxPO-39" value="" style="rounded=0;whiteSpace=wrap;html=1;fillColor=none;strokeWidth=2;strokeColor=light-dark(#000000,#00FF00);" vertex="1" parent="WIyWlLk6GJQsqaUBKTNV-1">
          <mxGeometry x="-1260" y="196" width="280" height="62" as="geometry" />
        </mxCell>
        <mxCell id="RCsGizd7HEm1mJrGQxPO-40" value="" style="rounded=0;whiteSpace=wrap;html=1;fillColor=none;strokeWidth=2;strokeColor=light-dark(#000000,#FF0000);" vertex="1" parent="WIyWlLk6GJQsqaUBKTNV-1">
          <mxGeometry x="-1560" y="258" width="186" height="202" as="geometry" />
        </mxCell>
        <mxCell id="RCsGizd7HEm1mJrGQxPO-41" value="" style="rounded=0;whiteSpace=wrap;html=1;fillColor=none;strokeWidth=2;strokeColor=light-dark(#000000,#FF0000);" vertex="1" parent="WIyWlLk6GJQsqaUBKTNV-1">
          <mxGeometry x="-1534" y="240" width="70" height="18" as="geometry" />
        </mxCell>
        <mxCell id="RCsGizd7HEm1mJrGQxPO-42" value="Use Cases" style="text;html=1;align=center;verticalAlign=middle;whiteSpace=wrap;rounded=0;fontSize=13;" vertex="1" parent="WIyWlLk6GJQsqaUBKTNV-1">
          <mxGeometry x="-1542.5" y="233.5" width="87" height="33" as="geometry" />
        </mxCell>
        <mxCell id="RCsGizd7HEm1mJrGQxPO-76" style="edgeStyle=orthogonalEdgeStyle;rounded=0;orthogonalLoop=1;jettySize=auto;html=1;exitX=1;exitY=0.5;exitDx=0;exitDy=0;entryX=0;entryY=0.5;entryDx=0;entryDy=0;" edge="1" parent="WIyWlLk6GJQsqaUBKTNV-1" source="RCsGizd7HEm1mJrGQxPO-47" target="RCsGizd7HEm1mJrGQxPO-48">
          <mxGeometry relative="1" as="geometry" />
        </mxCell>
        <mxCell id="RCsGizd7HEm1mJrGQxPO-47" value="API routes" style="swimlane;fontStyle=2;align=center;verticalAlign=top;childLayout=stackLayout;horizontal=1;startSize=26;horizontalStack=0;resizeParent=1;resizeLast=0;collapsible=1;marginBottom=0;rounded=0;shadow=0;strokeWidth=1;" vertex="1" parent="WIyWlLk6GJQsqaUBKTNV-1">
          <mxGeometry x="-1470" y="115" width="126" height="30" as="geometry">
            <mxRectangle x="230" y="140" width="160" height="26" as="alternateBounds" />
          </mxGeometry>
        </mxCell>
        <mxCell id="RCsGizd7HEm1mJrGQxPO-48" value="SchedulesCreate" style="swimlane;fontStyle=2;align=center;verticalAlign=top;childLayout=stackLayout;horizontal=1;startSize=26;horizontalStack=0;resizeParent=1;resizeLast=0;collapsible=1;marginBottom=0;rounded=0;shadow=0;strokeWidth=1;" vertex="1" parent="WIyWlLk6GJQsqaUBKTNV-1">
          <mxGeometry x="-1290" y="115" width="126" height="30" as="geometry">
            <mxRectangle x="230" y="140" width="160" height="26" as="alternateBounds" />
          </mxGeometry>
        </mxCell>
        <mxCell id="RCsGizd7HEm1mJrGQxPO-49" style="edgeStyle=orthogonalEdgeStyle;rounded=0;orthogonalLoop=1;jettySize=auto;html=1;exitX=0.5;exitY=1;exitDx=0;exitDy=0;" edge="1" parent="WIyWlLk6GJQsqaUBKTNV-1" source="RCsGizd7HEm1mJrGQxPO-36" target="RCsGizd7HEm1mJrGQxPO-36">
          <mxGeometry relative="1" as="geometry" />
        </mxCell>
        <mxCell id="RCsGizd7HEm1mJrGQxPO-50" value="FastAPI" style="swimlane;fontStyle=2;align=center;verticalAlign=top;childLayout=stackLayout;horizontal=1;startSize=26;horizontalStack=0;resizeParent=1;resizeLast=0;collapsible=1;marginBottom=0;rounded=0;shadow=0;strokeWidth=1;" vertex="1" parent="WIyWlLk6GJQsqaUBKTNV-1">
          <mxGeometry x="-1250" y="209" width="126" height="30" as="geometry">
            <mxRectangle x="230" y="140" width="160" height="26" as="alternateBounds" />
          </mxGeometry>
        </mxCell>
        <mxCell id="RCsGizd7HEm1mJrGQxPO-51" value="SQLAlchemy" style="swimlane;fontStyle=2;align=center;verticalAlign=top;childLayout=stackLayout;horizontal=1;startSize=26;horizontalStack=0;resizeParent=1;resizeLast=0;collapsible=1;marginBottom=0;rounded=0;shadow=0;strokeWidth=1;" vertex="1" parent="WIyWlLk6GJQsqaUBKTNV-1">
          <mxGeometry x="-1110" y="209" width="126" height="30" as="geometry">
            <mxRectangle x="230" y="140" width="160" height="26" as="alternateBounds" />
          </mxGeometry>
        </mxCell>
        <mxCell id="RCsGizd7HEm1mJrGQxPO-53" value="DateUtils" style="swimlane;fontStyle=0;align=center;verticalAlign=top;childLayout=stackLayout;horizontal=1;startSize=26;horizontalStack=0;resizeParent=1;resizeLast=0;collapsible=1;marginBottom=0;rounded=0;shadow=0;strokeWidth=1;" vertex="1" parent="WIyWlLk6GJQsqaUBKTNV-1">
          <mxGeometry x="-1547" y="278" width="146" height="162" as="geometry">
            <mxRectangle x="-540" y="494.5" width="160" height="26" as="alternateBounds" />
          </mxGeometry>
        </mxCell>
        <mxCell id="RCsGizd7HEm1mJrGQxPO-54" value="get_schedule_on_day()" style="text;align=left;verticalAlign=top;spacingLeft=4;spacingRight=4;overflow=hidden;rotatable=0;points=[[0,0.5],[1,0.5]];portConstraint=eastwest;" vertex="1" parent="RCsGizd7HEm1mJrGQxPO-53">
          <mxGeometry y="26" width="146" height="26" as="geometry" />
        </mxCell>
        <mxCell id="RCsGizd7HEm1mJrGQxPO-55" value="get_appointment()" style="text;align=left;verticalAlign=top;spacingLeft=4;spacingRight=4;overflow=hidden;rotatable=0;points=[[0,0.5],[1,0.5]];portConstraint=eastwest;rounded=0;shadow=0;html=0;" vertex="1" parent="RCsGizd7HEm1mJrGQxPO-53">
          <mxGeometry y="52" width="146" height="26" as="geometry" />
        </mxCell>
        <mxCell id="RCsGizd7HEm1mJrGQxPO-56" value="check_actual()" style="text;align=left;verticalAlign=top;spacingLeft=4;spacingRight=4;overflow=hidden;rotatable=0;points=[[0,0.5],[1,0.5]];portConstraint=eastwest;" vertex="1" parent="RCsGizd7HEm1mJrGQxPO-53">
          <mxGeometry y="78" width="146" height="26" as="geometry" />
        </mxCell>
        <mxCell id="RCsGizd7HEm1mJrGQxPO-57" value="sort_data()Â " style="text;align=left;verticalAlign=top;spacingLeft=4;spacingRight=4;overflow=hidden;rotatable=0;points=[[0,0.5],[1,0.5]];portConstraint=eastwest;" vertex="1" parent="RCsGizd7HEm1mJrGQxPO-53">
          <mxGeometry y="104" width="146" height="26" as="geometry" />
        </mxCell>
        <mxCell id="RCsGizd7HEm1mJrGQxPO-58" value="rounding_minutes()" style="text;align=left;verticalAlign=top;spacingLeft=4;spacingRight=4;overflow=hidden;rotatable=0;points=[[0,0.5],[1,0.5]];portConstraint=eastwest;" vertex="1" parent="RCsGizd7HEm1mJrGQxPO-53">
          <mxGeometry y="130" width="146" height="26" as="geometry" />
        </mxCell>
        <mxCell id="RCsGizd7HEm1mJrGQxPO-59" value="" style="rounded=0;whiteSpace=wrap;html=1;fillColor=none;strokeWidth=2;strokeColor=light-dark(#000000,#140CFF);" vertex="1" parent="WIyWlLk6GJQsqaUBKTNV-1">
          <mxGeometry x="-1260" y="284.25" width="70" height="20" as="geometry" />
        </mxCell>
        <mxCell id="RCsGizd7HEm1mJrGQxPO-60" value="Schedules" style="swimlane;fontStyle=0;align=center;verticalAlign=top;childLayout=stackLayout;horizontal=1;startSize=26;horizontalStack=0;resizeParent=1;resizeLast=0;collapsible=1;marginBottom=0;rounded=0;shadow=0;strokeWidth=1;" vertex="1" parent="WIyWlLk6GJQsqaUBKTNV-1">
          <mxGeometry x="-1167" y="420" width="160" height="234" as="geometry">
            <mxRectangle x="130" y="380" width="160" height="26" as="alternateBounds" />
          </mxGeometry>
        </mxCell>
        <mxCell id="RCsGizd7HEm1mJrGQxPO-61" value="*id: int" style="text;align=left;verticalAlign=top;spacingLeft=4;spacingRight=4;overflow=hidden;rotatable=0;points=[[0,0.5],[1,0.5]];portConstraint=eastwest;" vertex="1" parent="RCsGizd7HEm1mJrGQxPO-60">
          <mxGeometry y="26" width="160" height="26" as="geometry" />
        </mxCell>
        <mxCell id="RCsGizd7HEm1mJrGQxPO-62" value="medicine: str" style="text;align=left;verticalAlign=top;spacingLeft=4;spacingRight=4;overflow=hidden;rotatable=0;points=[[0,0.5],[1,0.5]];portConstraint=eastwest;" vertex="1" parent="RCsGizd7HEm1mJrGQxPO-60">
          <mxGeometry y="52" width="160" height="26" as="geometry" />
        </mxCell>
        <mxCell id="RCsGizd7HEm1mJrGQxPO-63" value="periodicity: int" style="text;align=left;verticalAlign=top;spacingLeft=4;spacingRight=4;overflow=hidden;rotatable=0;points=[[0,0.5],[1,0.5]];portConstraint=eastwest;" vertex="1" parent="RCsGizd7HEm1mJrGQxPO-60">
          <mxGeometry y="78" width="160" height="26" as="geometry" />
        </mxCell>
        <mxCell id="RCsGizd7HEm1mJrGQxPO-64" value="duration: int | None" style="text;align=left;verticalAlign=top;spacingLeft=4;spacingRight=4;overflow=hidden;rotatable=0;points=[[0,0.5],[1,0.5]];portConstraint=eastwest;" vertex="1" parent="RCsGizd7HEm1mJrGQxPO-60">
          <mxGeometry y="104" width="160" height="26" as="geometry" />
        </mxCell>
        <mxCell id="RCsGizd7HEm1mJrGQxPO-65" value="user_id: int" style="text;align=left;verticalAlign=top;spacingLeft=4;spacingRight=4;overflow=hidden;rotatable=0;points=[[0,0.5],[1,0.5]];portConstraint=eastwest;" vertex="1" parent="RCsGizd7HEm1mJrGQxPO-60">
          <mxGeometry y="130" width="160" height="26" as="geometry" />
        </mxCell>
        <mxCell id="RCsGizd7HEm1mJrGQxPO-66" value="date_created: datetime" style="text;align=left;verticalAlign=top;spacingLeft=4;spacingRight=4;overflow=hidden;rotatable=0;points=[[0,0.5],[1,0.5]];portConstraint=eastwest;" vertex="1" parent="RCsGizd7HEm1mJrGQxPO-60">
          <mxGeometry y="156" width="160" height="26" as="geometry" />
        </mxCell>
        <mxCell id="RCsGizd7HEm1mJrGQxPO-67" value="is_active: bool" style="text;align=left;verticalAlign=top;spacingLeft=4;spacingRight=4;overflow=hidden;rotatable=0;points=[[0,0.5],[1,0.5]];portConstraint=eastwest;" vertex="1" parent="RCsGizd7HEm1mJrGQxPO-60">
          <mxGeometry y="182" width="160" height="26" as="geometry" />
        </mxCell>
        <mxCell id="RCsGizd7HEm1mJrGQxPO-68" value="start_treatment: datetime" style="text;align=left;verticalAlign=top;spacingLeft=4;spacingRight=4;overflow=hidden;rotatable=0;points=[[0,0.5],[1,0.5]];portConstraint=eastwest;" vertex="1" parent="RCsGizd7HEm1mJrGQxPO-60">
          <mxGeometry y="208" width="160" height="26" as="geometry" />
        </mxCell>
        <mxCell id="RCsGizd7HEm1mJrGQxPO-69" value="Users" style="swimlane;fontStyle=0;align=center;verticalAlign=top;childLayout=stackLayout;horizontal=1;startSize=26;horizontalStack=0;resizeParent=1;resizeLast=0;collapsible=1;marginBottom=0;rounded=0;shadow=0;strokeWidth=1;" vertex="1" parent="WIyWlLk6GJQsqaUBKTNV-1">
          <mxGeometry x="-1250" y="334.25" width="160" height="60" as="geometry">
            <mxRectangle x="130" y="380" width="160" height="26" as="alternateBounds" />
          </mxGeometry>
        </mxCell>
        <mxCell id="RCsGizd7HEm1mJrGQxPO-70" value="*id: int" style="text;align=left;verticalAlign=top;spacingLeft=4;spacingRight=4;overflow=hidden;rotatable=0;points=[[0,0.5],[1,0.5]];portConstraint=eastwest;" vertex="1" parent="RCsGizd7HEm1mJrGQxPO-69">
          <mxGeometry y="26" width="160" height="26" as="geometry" />
        </mxCell>
        <mxCell id="RCsGizd7HEm1mJrGQxPO-72" value="Entities" style="text;html=1;align=center;verticalAlign=middle;whiteSpace=wrap;rounded=0;fontSize=14;" vertex="1" parent="WIyWlLk6GJQsqaUBKTNV-1">
          <mxGeometry x="-1257" y="278.25" width="64" height="32" as="geometry" />
        </mxCell>
        <mxCell id="RCsGizd7HEm1mJrGQxPO-82" value="" style="endArrow=classic;html=1;rounded=0;entryX=0.5;entryY=1;entryDx=0;entryDy=0;exitX=0;exitY=0.5;exitDx=0;exitDy=0;" edge="1" parent="WIyWlLk6GJQsqaUBKTNV-1" source="RCsGizd7HEm1mJrGQxPO-50" target="RCsGizd7HEm1mJrGQxPO-47">
          <mxGeometry width="50" height="50" relative="1" as="geometry">
            <mxPoint x="-1350" y="403" as="sourcePoint" />
            <mxPoint x="-1300" y="353" as="targetPoint" />
          </mxGeometry>
        </mxCell>
        <mxCell id="RCsGizd7HEm1mJrGQxPO-83" value="" style="endArrow=classic;html=1;rounded=0;entryX=0;entryY=0;entryDx=0;entryDy=0;exitX=1;exitY=0.5;exitDx=0;exitDy=0;" edge="1" parent="WIyWlLk6GJQsqaUBKTNV-1" source="RCsGizd7HEm1mJrGQxPO-47" target="RCsGizd7HEm1mJrGQxPO-51">
          <mxGeometry width="50" height="50" relative="1" as="geometry">
            <mxPoint x="-1350" y="403" as="sourcePoint" />
            <mxPoint x="-1300" y="353" as="targetPoint" />
          </mxGeometry>
        </mxCell>
        <mxCell id="RCsGizd7HEm1mJrGQxPO-84" value="" style="endArrow=classic;html=1;rounded=0;entryX=0.5;entryY=0;entryDx=0;entryDy=0;exitX=0.5;exitY=1;exitDx=0;exitDy=0;" edge="1" parent="WIyWlLk6GJQsqaUBKTNV-1" source="RCsGizd7HEm1mJrGQxPO-47" target="RCsGizd7HEm1mJrGQxPO-53">
          <mxGeometry width="50" height="50" relative="1" as="geometry">
            <mxPoint x="-1350" y="403" as="sourcePoint" />
            <mxPoint x="-1300" y="353" as="targetPoint" />
          </mxGeometry>
        </mxCell>
        <mxCell id="RCsGizd7HEm1mJrGQxPO-90" value="" style="endArrow=classic;html=1;rounded=0;entryX=0.5;entryY=0;entryDx=0;entryDy=0;exitX=0.5;exitY=1;exitDx=0;exitDy=0;" edge="1" parent="WIyWlLk6GJQsqaUBKTNV-1" source="RCsGizd7HEm1mJrGQxPO-51" target="RCsGizd7HEm1mJrGQxPO-69">
          <mxGeometry width="50" height="50" relative="1" as="geometry">
            <mxPoint x="-1370" y="343" as="sourcePoint" />
            <mxPoint x="-1320" y="293" as="targetPoint" />
          </mxGeometry>
        </mxCell>
        <mxCell id="RCsGizd7HEm1mJrGQxPO-91" value="" style="endArrow=classic;html=1;rounded=0;exitX=0.5;exitY=1;exitDx=0;exitDy=0;entryX=0.5;entryY=0;entryDx=0;entryDy=0;" edge="1" parent="WIyWlLk6GJQsqaUBKTNV-1" source="RCsGizd7HEm1mJrGQxPO-51" target="RCsGizd7HEm1mJrGQxPO-60">
          <mxGeometry width="50" height="50" relative="1" as="geometry">
            <mxPoint x="-1370" y="343" as="sourcePoint" />
            <mxPoint x="-1320" y="293" as="targetPoint" />
          </mxGeometry>
        </mxCell>
      </root>
    </mxGraphModel>
  </diagram>
</mxfile>
